<svg height="512pt" viewBox="0 0 512 512" width="512pt" xmlns="http://www.w3.org/2000/svg"><path d="m512 256c0 67.140625-25.859375 128.25-68.140625 173.910156-15.609375 16.851563-33.449219 31.589844-53.058594 43.761719-39.152343 24.296875-85.339843 38.328125-134.800781 38.328125s-95.648438-14.03125-134.800781-38.328125c-19.609375-12.171875-37.449219-26.910156-53.058594-43.761719-42.28125-45.660156-68.140625-106.769531-68.140625-173.910156s25.859375-128.25 68.140625-173.910156c17.128906-18.488282 36.949219-34.449219 58.847656-47.238282 37.882813-22.160156 81.960938-34.851562 129.011719-34.851562s91.128906 12.691406 129.011719 34.851562c21.898437 12.789063 41.71875 28.75 58.847656 47.238282 42.28125 45.660156 68.140625 106.769531 68.140625 173.910156zm0 0" fill="#303a59"/><path d="m443.859375 50.738281v422.933594h-322.660156c-19.609375-12.171875-37.449219-26.910156-53.058594-43.761719v-379.171875c0-8.769531 7.121094-15.886719 15.890625-15.886719h343.9375c8.769531 0 15.890625 7.117188 15.890625 15.886719zm0 0" fill="#c7d9ff"/><g fill="#b5ccf4"><path d="m175.828125 473.660156v.011719h-54.628906c-19.609375-12.171875-37.449219-26.910156-53.058594-43.761719v-379.171875c0-8.769531 7.121094-15.886719 15.890625-15.886719h65.109375c-8.78125 0-15.890625 7.117188-15.890625 15.886719v380.351563c0 23.511718 19.070312 42.558594 42.578125 42.570312zm0 0"/><path d="m397.328125 443.046875h-282.65625c-8.769531 0-15.90625-7.136719-15.90625-15.90625v-227.398437c0-8.769532 7.136719-15.90625 15.90625-15.90625h282.65625c8.773437 0 15.90625 7.136718 15.90625 15.90625v227.398437c0 8.769531-7.132813 15.90625-15.90625 15.90625zm-282.65625-244.210937c-.5 0-.90625.40625-.90625.90625v227.398437c0 .5.40625.90625.90625.90625h282.65625c.5 0 .90625-.40625.90625-.90625v-227.398437c0-.5-.40625-.90625-.90625-.90625zm0 0"/><path d="m248.5 191.335938h15v244.210937h-15zm0 0"/><path d="m323.367188 191.335938h15v244.210937h-15zm0 0"/><path d="m173.632812 191.335938h15v244.210937h-15zm0 0"/><path d="m106.265625 305.941406h299.46875v15h-299.46875zm0 0"/><path d="m106.265625 366.996094h299.46875v15h-299.46875zm0 0"/><path d="m106.265625 244.890625h299.46875v15h-299.46875zm0 0"/></g><path d="m502.121094 381.839844v49.25c0 11.761718-4.769532 22.410156-12.472656 30.109375-7.707032 7.699219-18.347657 12.472656-30.109376 12.472656h-338.339843c-.5-.3125-1-.621094-1.5-.953125 19.210937-4.117188 33.609375-21.1875 33.609375-41.628906v-49.25c0-9.851563 7.980468-17.828125 17.832031-17.828125h313.148437c1.261719 0 2.5.128906 3.691407.378906 8.078125 1.699219 14.140625 8.859375 14.140625 17.449219zm0 0" fill="#ebf0f3"/><path d="m443.855469 153.214844h-375.710938v-102.472656c0-8.777344 7.113281-15.890626 15.890625-15.890626h343.929688c8.777344 0 15.890625 7.113282 15.890625 15.890626zm0 0" fill="#ff3345"/><path d="m68.144531 153.214844h65.105469v-102.472656c0-8.777344 7.113281-15.890626 15.890625-15.890626h-65.105469c-4.9375 0-9.347656 2.25-12.261718 5.78125-.648438.785157-1.222657 1.632813-1.710938 2.535157-1.222656 2.25-1.917969 4.832031-1.917969 7.574219zm0 0" fill="#e32828"/><path d="m148.140625 119.878906c-19.25 0-34.855469-15.605468-34.855469-34.851562v-48.601563c0-19.25 15.605469-34.855469 34.855469-34.855469s34.851563 15.605469 34.851563 34.855469v48.601563c.003906 19.246094-15.601563 34.851562-34.851563 34.851562zm0 0" fill="#ffe854"/><path d="m143.285156 85.027344v-48.601563c0-13.878906 8.113282-25.859375 19.855469-31.464843-4.542969-2.171876-9.628906-3.390626-15-3.390626-19.25 0-34.855469 15.605469-34.855469 34.855469v48.601563c0 19.25 15.605469 34.851562 34.855469 34.851562 5.371094 0 10.457031-1.214844 15-3.386718-11.742187-5.605469-19.855469-17.585938-19.855469-31.464844zm0 0" fill="#ffcf11"/><path d="m256 119.878906c-19.25 0-34.855469-15.605468-34.855469-34.851562v-48.601563c0-19.25 15.605469-34.855469 34.855469-34.855469s34.855469 15.605469 34.855469 34.855469v48.601563c0 19.246094-15.605469 34.851562-34.855469 34.851562zm0 0" fill="#ffe854"/><path d="m251.144531 85.027344v-48.601563c0-13.878906 8.113281-25.859375 19.855469-31.464843-4.542969-2.171876-9.628906-3.390626-15-3.390626-19.25 0-34.855469 15.605469-34.855469 34.855469v48.601563c0 19.25 15.605469 34.851562 34.855469 34.851562 5.371094 0 10.457031-1.214844 15-3.386718-11.742188-5.605469-19.855469-17.585938-19.855469-31.464844zm0 0" fill="#ffcf11"/><path d="m363.859375 119.878906c-19.25 0-34.851563-15.605468-34.851563-34.851562v-48.601563c0-19.25 15.601563-34.855469 34.851563-34.855469s34.855469 15.605469 34.855469 34.855469v48.601563c0 19.246094-15.605469 34.851562-34.855469 34.851562zm0 0" fill="#ffe854"/><path d="m359.003906 85.027344v-48.601563c0-13.878906 8.113282-25.859375 19.855469-31.464843-4.542969-2.171876-9.628906-3.390626-15-3.390626-19.25 0-34.855469 15.605469-34.855469 34.855469v48.601563c0 19.25 15.605469 34.851562 34.855469 34.851562 5.371094 0 10.457031-1.214844 15-3.386718-11.742187-5.605469-19.855469-17.585938-19.855469-31.464844zm0 0" fill="#ffcf11"/></svg>